<svg id="Layer_1" enable-background="new 0 0 511.72 511.72" height="512" viewBox="0 0 511.72 511.72" width="512" xmlns="http://www.w3.org/2000/svg"><g><path d="m496.785 481.72h-7.857v-158.931h7.857c19.902-.793 19.887-29.215 0-30h-44.27l-5.169-3.343v-142.576h9.898c19.902-.793 19.887-29.215 0-30h-21.07l-162.85-88.936v-13.013c-.793-19.902-29.215-19.887-30 0v12.915l-166.851 89.034h-22.146c-19.902.793-19.887 29.215 0 30h10.898v138.918l-11.107 7.001h-39.183c-19.902.793-19.887 29.215 0 30h7.706v158.931h-7.706c-19.902.793-19.887 29.215 0 30h481.85c19.902-.793 19.887-29.215 0-30zm-110.804-334.85h31.363v123.173l-31.363-20.284zm-130.301 54.343 141.593 91.576h-286.89zm-99.934 27.523v-81.866h200.235v83.486l-92.051-59.534c-4.905-3.171-11.204-3.208-16.145-.095zm102.495-174.857 115.342 62.991h-233.386zm-163.016 92.991h30.521v100.774l-30.521 19.236zm30.521 206.743h-28.557c-19.902.793-19.887 29.215 0 30h28.557v37.273h-28.557c-19.902.793-19.887 29.215 0 30h28.557v30.834h-73.105v-158.931h73.105zm60.856 128.107h-30.855v-158.931h30.855zm109.953 0h-79.953v-158.931h79.953zm59.268 0h-29.269v-158.931h29.269zm103.105 0h-73.104v-30.829h28.557c19.902-.793 19.887-29.215 0-30h-28.557v-37.278h28.557c19.902-.793 19.887-29.215 0-30h-28.557v-30.824h62.193c.029.001.059.003.088 0h10.824v158.931z"/><path d="m255.785 241.479c-8.284 0-15 6.716-15 15 .79 19.897 29.213 19.892 30 0 0-8.284-6.716-15-15-15z"/></g></svg>