<svg id="Layer_1" enable-background="new 0 0 512.001 512.001" height="512" viewBox="0 0 512.001 512.001" width="512" xmlns="http://www.w3.org/2000/svg"><g><path d="m505.441 44.985c-4.104-2.793-9.325-3.375-13.942-1.554l-185.15 73.003c-5.731 2.26-9.498 7.794-9.498 13.954v251.632c-46.481-33.924-113.694.285-113.372 58.265 3.935 95.096 139.447 95.075 143.372-.001v-216.46l155.15-58.168v133.241c-46.481-33.924-113.694.285-113.372 58.265 3.935 95.096 139.447 95.075 143.372-.001v-299.775c0-4.964-2.456-9.608-6.56-12.401zm-250.277 436.985c-22.985 0-41.686-18.7-41.686-41.686 2.29-55.303 81.091-55.286 83.372 0 0 22.985-18.7 41.686-41.686 41.686zm71.686-290.184v-51.187l155.15-61.175v54.194zm113.464 207.06c-22.985 0-41.686-18.7-41.686-41.686 2.29-55.303 81.091-55.286 83.372 0 .001 22.986-18.699 41.686-41.686 41.686z"/><path d="m185.98 217.831c-4.581 6.902-2.699 16.211 4.203 20.793 6.901 4.579 16.211 2.7 20.793-4.203l12.365-18.63c18.364-27.67 18.331-63.405-.084-91.041-.064-.097-.13-.192-.195-.287l-82.404-117.665c-3.755-5.363-10.554-7.668-16.797-5.701-6.244 1.969-10.489 7.759-10.489 14.306v193.805c-46.48-33.924-113.693.286-113.371 58.265 3.935 95.096 139.446 95.076 143.371-.001v-204.502l55.011 78.552c11.605 17.531 11.596 40.153-.037 57.68zm-114.294 91.326c-22.985 0-41.686-18.7-41.686-41.686 2.29-55.303 81.09-55.287 83.371 0 .001 22.986-18.699 41.686-41.685 41.686z"/></g></svg>